# Blender v2.78 (sub 0) OBJ File: ''
# www.blender.org
mtllib box.mtl
o Cube
v 0.448698 -0.639085 -1.546040
v 1.167412 -1.261575 0.213493
v -0.684086 -1.261575 0.969771
v -1.402799 -0.639085 -0.789762
v 0.684086 1.261575 -0.969771
v 1.402799 0.639085 0.789763
v -0.448698 0.639085 1.546040
v -1.167412 1.261575 -0.213493
vn -0.1177 -0.9503 -0.2881
vn 0.1177 0.9503 0.2881
vn 0.9257 -0.0000 -0.3781
vn 0.3594 -0.3112 0.8798
vn -0.9257 -0.0000 0.3781
vn -0.3594 0.3112 -0.8798
usemtl Material
s off
f 1//1 3//1 4//1
f 8//2 6//2 5//2
f 5//3 2//3 1//3
f 6//4 3//4 2//4
f 3//5 8//5 4//5
f 1//6 8//6 5//6
f 1//1 2//1 3//1
f 8//2 7//2 6//2
f 5//3 6//3 2//3
f 6//4 7//4 3//4
f 3//5 7//5 8//5
f 1//6 4//6 8//6
